<?xml version="1.0" encoding="UTF-8"?>
<!DOCTYPE svg PUBLIC "-//W3C//DTD SVG 1.1//EN" "http://www.w3.org/Graphics/SVG/1.1/DTD/svg11.dtd">
<svg xmlns="http://www.w3.org/2000/svg" xml:space="preserve" width="580px" height="580px" shape-rendering="geometricPrecision" text-rendering="geometricPrecision" image-rendering="optimizeQuality" fill-rule="nonzero" clip-rule="nonzero" viewBox="0 0 5800 5800" xmlns:xlink="http://www.w3.org/1999/xlink">
	<title>calendar_clock icon</title>
	<desc>calendar_clock icon from the IconExperience.com I-Collection. Copyright by INCORS GmbH (www.incors.com).</desc>
		<path id="curve29" fill="#000000" d="M900 3500l400 0 0 1400 -200 0 0 -1200 -200 0 0 -200zm1200 -1600c0,247 51,482 140,696 -13,3 -26,4 -40,4 -110,0 -200,-90 -200,-200 0,-72 38,-138 100,-173l0 -127 -400 0 0 127c62,35 100,101 100,173 0,110 -90,200 -200,200 -110,0 -200,-90 -200,-200 0,-72 38,-137 100,-173l0 -127 -400 0 0 127c62,35 100,101 100,173 0,110 -90,200 -200,200 -110,0 -200,-90 -200,-200 0,-72 38,-137 100,-173l0 -127 -300 0c-55,0 -100,45 -100,100l0 700 1904 0c47,70 99,137 155,200l-2059 0 0 2200 2800 0 0 -1703c65,23 132,43 200,58l0 1845 -3200 0c0,-1100 0,-2200 0,-3300 0,-165 135,-300 300,-300l300 0 0 -200c0,-55 45,-100 100,-100 55,0 100,45 100,100l0 200 400 0 0 -200c0,-55 45,-100 100,-100 55,0 100,45 100,100l0 200 400 0zm-400 2000c0,-220 180,-400 400,-400l400 0c110,0 210,45 283,117 72,73 117,173 117,283 0,89 -28,172 -78,239 -51,67 -122,118 -207,144l-573 172c-43,13 -79,38 -103,71 -25,33 -39,75 -39,120l0 54 1000 0 0 200 -1200 0 0 -254c0,-89 28,-171 79,-239 50,-67 121,-118 206,-144l573 -171c43,-13 79,-39 103,-72 25,-33 39,-74 39,-120 0,-55 -22,-105 -59,-141 -36,-37 -86,-59 -141,-59l-400 0c-110,0 -200,90 -200,200l-200 0z"/>
	<path id="curve28" fill="#000000" d="M3157 1011l695 695c16,-4 32,-6 49,-6 19,0 37,3 54,7l424 -423 141 141 -425 426c4,16 6,32 6,49 0,110 -90,200 -200,200 -110,0 -200,-90 -200,-200 0,-19 3,-37 7,-54l-693 -693 142 -142zm744 -711c884,0 1600,716 1600,1600 0,884 -716,1600 -1600,1600 -884,0 -1600,-716 -1600,-1600 0,-884 716,-1600 1600,-1600zm0 200c-773,0 -1400,627 -1400,1400 0,773 627,1400 1400,1400 773,0 1400,-627 1400,-1400 0,-773 -627,-1400 -1400,-1400z"/>
</svg>