<?xml version="1.0" encoding="UTF-8"?>
<!DOCTYPE svg PUBLIC "-//W3C//DTD SVG 1.1//EN" "http://www.w3.org/Graphics/SVG/1.1/DTD/svg11.dtd">
<svg xmlns="http://www.w3.org/2000/svg" xml:space="preserve" width="580px" height="580px" shape-rendering="geometricPrecision" text-rendering="geometricPrecision" image-rendering="optimizeQuality" fill-rule="nonzero" clip-rule="nonzero" viewBox="0 0 5800 5800" xmlns:xlink="http://www.w3.org/1999/xlink">
	<title>cashier icon</title>
	<desc>cashier icon from the IconExperience.com I-Collection. Copyright by INCORS GmbH (www.incors.com).</desc>
		<path id="curve29" fill="#000000" d="M500 4300l0 -3800 1600 0 0 1200 100 0c1395,0 2543,1102 2597,2496l3 102 -200 4 -2 -98c-50,-1287 -1110,-2304 -2398,-2304l-300 0 0 -1200 -1200 0 0 3600 -200 0zm3893 -1591l108 -62c48,-28 102,-34 151,-20 49,13 93,45 121,93l150 260c28,48 33,102 20,151 -12,44 -39,85 -79,113l-132 77 -100 -173 118 -68 -149 -260 0 -1c0,1 -1,1 -1,1 0,-1 0,-1 0,-1l0 0 -108 63 -99 -173zm207 110l0 0m-990 -832l78 -101c34,-44 82,-70 133,-77 49,-6 100,5 142,36l243 186c44,34 70,82 77,133 7,51 -6,104 -39,147l-85 111 -159 -121c7,-10 85,-111 85,-111 -20,-16 -238,-183 -238,-183l-78 101 -159 -121zm-1027 -370l30 -110c28,-106 138,-170 245,-141l289 78c106,28 170,138 142,244l-31 114 -193 -51 31 -114 -290 -78c0,0 -27,100 -30,110l-193 -52zm2717 2883l0 1000 -5000 0 0 -1000 5000 0zm-200 200l-4600 0 0 600 4600 0 0 -600z"/>
</svg>