<?xml version="1.0" encoding="UTF-8"?>
<!DOCTYPE svg PUBLIC "-//W3C//DTD SVG 1.1//EN" "http://www.w3.org/Graphics/SVG/1.1/DTD/svg11.dtd">
<svg xmlns="http://www.w3.org/2000/svg" xml:space="preserve" width="580px" height="580px" shape-rendering="geometricPrecision" text-rendering="geometricPrecision" image-rendering="optimizeQuality" fill-rule="nonzero" clip-rule="nonzero" viewBox="0 0 5800 5800" xmlns:xlink="http://www.w3.org/1999/xlink">
	<title>clipboard icon</title>
	<desc>clipboard icon from the IconExperience.com I-Collection. Copyright by INCORS GmbH (www.incors.com).</desc>
		<path id="curve28" fill="#000000" d="M2300 400c0,-165 135,-300 300,-300l600 0c165,0 300,135 300,300l600 0 0 1100 -2400 0 0 -1100 600 0zm-400 200l0 700 2000 0 0 -700 -600 0 0 -200c0,-55 -45,-100 -100,-100l-600 0c-140,0 -100,210 -100,300l-600 0zm-700 100l300 0 0 200 -300 0c-55,0 -100,45 -100,100l0 4200c0,55 45,100 100,100l3400 0c55,0 100,-45 100,-100l0 -4200c0,-55 -45,-100 -100,-100l-300 0 0 -200 300 0c165,0 300,135 300,300l0 4200c0,165 -135,300 -300,300l-3400 0c-165,0 -300,-135 -300,-300l0 -4200c0,-165 135,-300 300,-300zm300 400c0,1133 0,2467 0,3600l2800 0c0,-1133 0,-2467 0,-3600l200 0 0 3800 -3200 0 0 -3800 200 0z"/>
</svg>