<?xml version="1.0" encoding="UTF-8"?>
<!DOCTYPE svg PUBLIC "-//W3C//DTD SVG 1.1//EN" "http://www.w3.org/Graphics/SVG/1.1/DTD/svg11.dtd">
<svg xmlns="http://www.w3.org/2000/svg" xml:space="preserve" width="580px" height="580px" shape-rendering="geometricPrecision" text-rendering="geometricPrecision" image-rendering="optimizeQuality" fill-rule="nonzero" clip-rule="nonzero" viewBox="0 0 5800 5800" xmlns:xlink="http://www.w3.org/1999/xlink">
	<title>hourglass icon</title>
	<desc>hourglass icon from the IconExperience.com I-Collection. Copyright by INCORS GmbH (www.incors.com).</desc>
		<path id="curve28" fill="#000000" d="M1700 4900l1 -211c59,-508 403,-633 710,-744 205,-74 389,-141 389,-345l0 -800c0,-99 -42,-191 -106,-272 -84,-106 -205,-193 -327,-253 -99,-49 -215,-130 -306,-211 -93,-83 -165,-172 -180,-243l-27 -121c697,0 1395,0 2092,0l-27 121c-15,71 -87,160 -180,243 -91,81 -207,162 -306,211 -122,60 -243,147 -327,253 -64,81 -106,173 -106,272l0 800c0,204 184,271 389,345 307,111 651,236 710,744l1 211 200 0 -2 -300c-3,-561 -336,-1070 -854,-1290 -162,-69 -242,-241 -242,-410 0,-169 80,-341 243,-410 518,-219 855,-727 855,-1290l0 -300 -2800 0 0 300c0,563 337,1071 855,1290 163,69 242,241 242,410 0,168 -80,340 -242,409 -519,218 -861,726 -858,1291l2 300 201 0zm-600 200l0 200 3600 0 0 -200c-1200,0 -2400,0 -3600,0zm200 -200l-2 -300c-4,-645 386,-1225 980,-1475 85,-36 119,-139 119,-225 0,-86 -34,-190 -119,-226 -593,-250 -978,-831 -978,-1474l0 -300 -400 0 0 -600 4000 0c0,200 0,400 0,600l-400 0 0 300c0,643 -385,1224 -978,1474 -86,36 -121,139 -121,226 0,87 35,190 121,227 592,251 971,831 975,1473l2 300 401 0c0,200 0,400 0,600l-4000 0c0,-200 0,-400 0,-600l400 0zm-200 -4200l3600 0 0 -200 -3600 0 0 200zm2800 4200l0 -195c-47,-380 -328,-482 -578,-572 -168,-61 -325,-118 -422,-230 -97,112 -254,169 -421,230 -251,90 -532,192 -579,572l0 195 2000 0zm-1050 -2497c18,23 35,47 50,71 15,-24 32,-48 50,-71 104,-130 249,-235 395,-307 98,-48 197,-122 277,-196l-1444 0c80,74 179,148 277,196 146,72 291,177 395,307z"/>
</svg>