<?xml version="1.0" encoding="UTF-8"?>
<!DOCTYPE svg PUBLIC "-//W3C//DTD SVG 1.1//EN" "http://www.w3.org/Graphics/SVG/1.1/DTD/svg11.dtd">
<svg xmlns="http://www.w3.org/2000/svg" xml:space="preserve" width="580px" height="580px" shape-rendering="geometricPrecision" text-rendering="geometricPrecision" image-rendering="optimizeQuality" fill-rule="nonzero" clip-rule="nonzero" viewBox="0 0 5800 5800" xmlns:xlink="http://www.w3.org/1999/xlink">
	<title>mail icon</title>
	<desc>mail icon from the IconExperience.com I-Collection. Copyright by INCORS GmbH (www.incors.com).</desc>
		<path id="curve28" fill="#000000" d="M5202 4500l-1698 -1176 -356 287c-147,118 -349,118 -496,0l-356 -287 -1698 1176 4604 0zm-4703 -174l1635 -1132 -1635 -1316 0 2448zm1 -2826l0 86c0,27 10,45 31,62l2246 1808c73,59 173,59 246,0l2246 -1808c16,-13 27,-28 30,-49l0 -99 -4799 0zm4999 3200l-5200 0 0 -3400 5200 0c0,1133 0,2267 0,3400zm-200 -2820l-1633 1314 1633 1131 0 -2445z"/>
</svg>