<?xml version="1.0" encoding="UTF-8"?>
<!DOCTYPE svg PUBLIC "-//W3C//DTD SVG 1.1//EN" "http://www.w3.org/Graphics/SVG/1.1/DTD/svg11.dtd">
<svg xmlns="http://www.w3.org/2000/svg" xml:space="preserve" width="580px" height="580px" shape-rendering="geometricPrecision" text-rendering="geometricPrecision" image-rendering="optimizeQuality" fill-rule="nonzero" clip-rule="nonzero" viewBox="0 0 5800 5800" xmlns:xlink="http://www.w3.org/1999/xlink">
	<title>mobilephone3 icon</title>
	<desc>mobilephone3 icon from the IconExperience.com I-Collection. Copyright by INCORS GmbH (www.incors.com).</desc>
	<path id="curve0" fill="#333333" d="M2600 900c-55,0 -100,-45 -100,-100 0,-55 45,-100 100,-100l600 0c55,0 100,45 100,100 0,55 -45,100 -100,100l-600 0zm-700 -600l2000 0c275,0 500,225 500,500l0 4200c0,275 -225,500 -500,500l-2000 0c-275,0 -500,-225 -500,-500l0 -4200c0,-275 225,-500 500,-500zm2000 200l-2000 0c-165,0 -300,135 -300,300l0 4200c0,165 135,300 300,300l2000 0c165,0 300,-135 300,-300l0 -4200c0,-165 -135,-300 -300,-300zm0 600l0 3400 -2000 0 0 -3400 2000 0zm-200 200l-1600 0 0 3000 1600 0 0 -3000zm-797 3297c165,0 300,135 300,300 0,166 -135,300 -300,300 -166,0 -300,-134 -300,-300 0,-165 134,-300 300,-300zm0 200c-56,0 -100,45 -100,100 0,56 44,100 100,100 55,0 100,-44 100,-100 0,-55 -45,-100 -100,-100z"/>
</svg>