<?xml version="1.0" encoding="UTF-8"?>
<!DOCTYPE svg PUBLIC "-//W3C//DTD SVG 1.1//EN" "http://www.w3.org/Graphics/SVG/1.1/DTD/svg11.dtd">
<svg xmlns="http://www.w3.org/2000/svg" xml:space="preserve" width="580px" height="580px" shape-rendering="geometricPrecision" text-rendering="geometricPrecision" image-rendering="optimizeQuality" fill-rule="nonzero" clip-rule="nonzero" viewBox="0 0 5800 5800" xmlns:xlink="http://www.w3.org/1999/xlink">
	<title>nav_refresh icon</title>
	<desc>nav_refresh icon from the IconExperience.com I-Collection. Copyright by INCORS GmbH (www.incors.com).</desc>
		<path id="curve28" fill="#000000" d="M2730 4693l-622 -622 -70 -71 70 -71 622 -622 142 142 -452 451 1280 0c330,0 600,-270 600,-600l0 -800c0,-251 -159,-476 -393,-563l151 -152c269,136 442,412 442,715l0 800c0,440 -360,800 -800,800l-1280 0 452 451 -142 142zm-985 -676c-271,-135 -445,-412 -445,-717l0 -800c0,-440 360,-800 800,-800l1279 0 -451 -451 142 -142 622 623 71 70 -71 71 -622 622 -142 -141 452 -452 -1280 0c-330,0 -600,270 -600,600l0 800c0,253 160,478 397,564l-152 153zm1155 -3717c1436,0 2600,1164 2600,2600 0,1436 -1164,2600 -2600,2600 -1436,0 -2600,-1164 -2600,-2600 0,-1436 1164,-2600 2600,-2600zm0 200c-1326,0 -2400,1074 -2400,2400 0,1326 1074,2400 2400,2400 1326,0 2400,-1074 2400,-2400 0,-1326 -1074,-2400 -2400,-2400z"/>
</svg>