<?xml version="1.0" encoding="UTF-8"?>
<!DOCTYPE svg PUBLIC "-//W3C//DTD SVG 1.1//EN" "http://www.w3.org/Graphics/SVG/1.1/DTD/svg11.dtd">
<svg xmlns="http://www.w3.org/2000/svg" xml:space="preserve" width="580px" height="580px" shape-rendering="geometricPrecision" text-rendering="geometricPrecision" image-rendering="optimizeQuality" fill-rule="nonzero" clip-rule="nonzero" viewBox="0 0 5800 5800" xmlns:xlink="http://www.w3.org/1999/xlink">
	<title>user_smartphone icon</title>
	<desc>user_smartphone icon from the IconExperience.com I-Collection. Copyright by INCORS GmbH (www.incors.com).</desc>
		<path id="curve29" fill="#000000" d="M4036 415c-87,-56 -142,-87 -246,-104 -218,-35 -454,11 -634,141 -128,93 -222,227 -249,393 -6,37 -9,74 -8,113l35 538c1,14 -1,27 -5,39 -18,66 -15,140 9,204 22,57 59,105 113,132 27,13 45,37 53,63 26,98 75,227 136,346 48,95 102,181 155,233 20,20 30,46 30,71 0,86 -6,203 -33,314 -30,124 -88,239 -192,299 -116,71 -202,99 -300,129l0 -210c62,-20 122,-44 197,-91 52,-30 82,-97 101,-174 19,-75 25,-159 27,-228 -59,-68 -115,-157 -164,-252 -58,-116 -108,-241 -139,-345 -81,-52 -137,-129 -170,-216 -38,-100 -44,-215 -18,-317l-34 -522c-3,-48 3,-110 10,-158 37,-223 160,-400 329,-522 221,-161 514,-220 783,-177 109,18 184,48 278,105 78,-29 159,-38 238,-30 126,12 248,65 351,144 101,77 187,180 242,294 52,106 79,222 70,337l-35 529c26,103 21,217 -17,317 -33,87 -90,164 -171,216 -31,103 -80,229 -139,345 -48,95 -104,184 -163,251 2,71 8,155 26,230 17,76 47,142 99,172 102,64 179,87 270,114 61,19 120,38 180,60 111,41 250,91 342,181 98,95 174,215 225,344 54,136 82,282 82,421 0,204 -227,335 -539,417 -408,106 -976,139 -1311,139 -243,0 -611,-18 -950,-68l0 -202c334,52 706,70 950,70 325,0 874,-32 1261,-132 225,-59 389,-134 389,-224 0,-115 -23,-236 -67,-348 -41,-103 -101,-199 -179,-274 -62,-60 -178,-103 -272,-137 -56,-20 -111,-38 -168,-55 -104,-32 -193,-58 -314,-133 -108,-62 -164,-176 -193,-299 -25,-108 -29,-223 -32,-311 0,-29 11,-55 30,-73 54,-54 108,-139 156,-233 60,-120 109,-250 135,-347 8,-30 29,-53 56,-65 53,-27 89,-75 110,-130 25,-66 28,-142 8,-209 -3,-11 -5,-22 -4,-34l36 -546c6,-81 -13,-161 -50,-236 -42,-85 -106,-163 -184,-223 -75,-57 -161,-96 -248,-104 -62,-6 -126,4 -186,34 -32,16 -69,12 -98,-6z"/>
	<path id="curve28" fill="#000000" d="M1300 2400c-55,0 -100,-45 -100,-100 0,-55 45,-100 100,-100l400 0c55,0 100,45 100,100 0,55 -45,100 -100,100l-400 0zm-646 -500l1692 0c97,0 185,40 250,104 48,0 104,200 104,250l0 2892c0,194 -160,354 -354,354l-1692 0c-194,0 -354,-160 -354,-354l0 -2892c0,-195 159,-354 354,-354zm1692 200l-1692 0c-84,0 -154,70 -154,154l0 2892c0,85 69,154 154,154l1692 0c85,0 154,-69 154,-154l0 -2892c0,-85 -69,-154 -154,-154zm-846 2700c110,0 200,90 200,200 0,110 -90,200 -200,200 -110,0 -200,-90 -200,-200 0,-110 90,-200 200,-200zm800 -2300l0 2200 -1600 0 0 -2200 1600 0zm-200 200l-1200 0 0 1800 1200 0 0 -1800z"/>
</svg>