<?xml version="1.0" encoding="UTF-8"?>
<!DOCTYPE svg PUBLIC "-//W3C//DTD SVG 1.1//EN" "http://www.w3.org/Graphics/SVG/1.1/DTD/svg11.dtd">
<svg xmlns="http://www.w3.org/2000/svg" xml:space="preserve" width="580px" height="580px" shape-rendering="geometricPrecision" text-rendering="geometricPrecision" image-rendering="optimizeQuality" fill-rule="nonzero" clip-rule="nonzero" viewBox="0 0 5800 5800" xmlns:xlink="http://www.w3.org/1999/xlink">
	<title>users icon</title>
	<desc>users icon from the IconExperience.com I-Collection. Copyright by INCORS GmbH (www.incors.com).</desc>
		<path id="curve28" fill="#000000" d="M1408 1580c166,-48 334,-33 492,35 158,-68 326,-83 492,-35 153,43 287,152 379,289 92,138 143,305 128,465 -12,138 -9,480 43,796 33,198 85,381 163,485l42 57 -39 58c-91,138 -226,206 -370,239 -83,19 -166,26 -246,29 20,19 64,21 61,42 84,53 149,72 226,95 13,4 140,44 139,46 108,39 231,82 314,163 86,84 152,188 197,300 47,118 71,245 71,366 0,183 -199,299 -473,370 -351,91 -840,120 -1127,120 -287,0 -776,-29 -1127,-120 -274,-71 -473,-187 -473,-370 0,-120 24,-248 71,-366 45,-112 111,-216 197,-300 81,-78 201,-122 298,-157 51,-20 102,-36 155,-52 77,-23 142,-42 226,-95 22,-13 41,-24 60,-42 -221,-7 -468,-47 -615,-268l-39 -58 42 -57c78,-104 130,-287 163,-485 52,-316 55,-658 43,-796 -15,-160 36,-327 128,-465 92,-137 226,-246 379,-289zm55 192c-107,30 -202,109 -268,208 -68,102 -106,223 -96,336 14,148 11,514 -44,847 -32,190 -82,373 -157,505 133,132 370,132 552,132l112 0 -13 112c-9,77 -29,134 -64,183 0,28 -135,118 -135,117 -105,65 -182,88 -272,115 -47,14 -97,30 -144,47 -79,29 -177,65 -227,113 -66,64 -116,144 -151,231 -37,93 -56,195 -56,292 0,69 136,129 323,177 330,86 799,113 1077,113 278,0 747,-27 1077,-113 187,-48 323,-108 323,-177 0,-97 -19,-199 -56,-292 -35,-87 -85,-167 -151,-231 -50,-48 -148,-84 -227,-113l-16 -6c-1,0 -114,-37 -128,-41 -23,-7 -289,-99 -275,-117 -58,-34 -102,-68 -134,-116 -34,-48 -54,-106 -62,-183l-12 -111 111 0c108,0 233,0 343,-25 79,-19 153,-50 209,-107 -75,-132 -125,-315 -157,-505 -55,-333 -58,-699 -44,-847 10,-113 -27,-234 -96,-336 -66,-99 -161,-178 -268,-208 -134,-39 -268,-20 -392,42l-45 22 -45 -22c-124,-62 -257,-81 -392,-42zm1811 108c22,83 64,193 116,294 40,79 86,151 130,195 20,20 30,45 30,71 0,74 -5,176 -29,272 -27,110 -78,211 -171,265 -82,51 -147,76 -215,97 -10,-67 -19,-135 -25,-202 42,-15 85,-34 137,-66 41,-24 65,-79 81,-141 14,-61 20,-129 22,-187 -51,-58 -98,-134 -139,-214 -49,-97 -91,-204 -118,-292 -70,-46 -119,-114 -148,-189 -33,-88 -38,-188 -16,-278l-29 -445c-3,-42 2,-95 9,-137 63,-388 426,-616 800,-622 105,-2 226,12 323,55 28,13 55,27 84,45 67,-24 136,-31 204,-25 111,10 218,57 308,126 89,68 163,158 212,258 45,92 69,194 61,293l-30 452c22,90 17,190 -16,278 -29,75 -78,143 -148,189 -26,88 -68,195 -118,293 -41,79 -88,155 -138,213 2,59 7,127 21,189 14,59 37,112 78,137 87,54 152,73 229,97 53,15 104,32 155,51 97,35 217,79 298,158 86,83 152,187 197,299 47,119 71,246 71,366 0,183 -199,299 -473,370 -351,92 -840,120 -1127,120 -131,0 -304,-6 -487,-21 -14,-15 -27,-29 -42,-42 -84,-83 -187,-132 -281,-170 10,-7 19,-14 29,-22 277,41 579,55 781,55 278,0 747,-27 1077,-113 187,-48 323,-108 323,-177 0,-97 -19,-199 -56,-292 -35,-87 -85,-167 -151,-230 -50,-49 -148,-85 -227,-114 -47,-17 -97,-33 -144,-47 -91,-27 -168,-51 -276,-118 -95,-57 -143,-155 -168,-262 -22,-93 -26,-193 -28,-269 0,-29 11,-55 30,-74 45,-44 90,-116 131,-195 51,-102 93,-212 115,-294 8,-30 29,-53 55,-65 42,-22 71,-59 87,-103 21,-53 23,-115 7,-170 -3,-11 -5,-22 -4,-34l31 -468c5,-66 -11,-132 -41,-193 -35,-71 -89,-136 -154,-186 -62,-48 -134,-80 -205,-87 -51,-4 -103,4 -152,28 -33,16 -70,12 -98,-6 -39,-25 -70,-44 -101,-57 -69,-31 -164,-41 -239,-39 -275,5 -559,165 -606,455 -5,30 -7,61 -7,93l30 460c1,14 -1,27 -5,39 -14,53 -12,113 8,165 17,45 47,84 90,105 27,13 45,37 52,63z"/>
</svg>